<?xml version="1.0" encoding="UTF-8"?>
<svg id="Layer_1" data-name="Layer 1" xmlns="http://www.w3.org/2000/svg" viewBox="0 0 676.9 282.8">
  <defs>
    <style>
      .cls-1 {
        fill: #0f5e46;
      }

      .cls-2 {
        fill: #9bd962;
      }

      .cls-3 {
        fill: #94c25d;
      }
    </style>
  </defs>
  <rect class="cls-1" x="173.6" y="153.3" width="7.8" height="18.3" rx="3.9" ry="3.9" transform="translate(27.7 350.7) rotate(-94)"/>
  <path class="cls-1" d="M59.9,179.6c-.4.2-.9.3-1.3.4l-10.6.7c-2.1.1-4-1.5-4.1-3.6,0,0,0-.2,0-.2,0-2,1.6-3.7,3.6-3.9l10.6-.7c2.1-.1,4,1.5,4.1,3.6,0,0,0,.1,0,.2-2.7-.2-9-.5-8.7.5.3,1.1,5,2.7,6.4,3.2Z"/>
  <path class="cls-3" d="M93.7,195.1c4.1,3.8,14.3,15,15.3,20.1.7,3.1-1.6,8.9-1.9,12.5-.5,6.1.2,11.6,2.5,17.2-9.6-.5-8.2-8.9-9.9-15.5-5.8-22-22.4-42.8-44-52.7,14-.5,28.4,9.4,38,18.4Z"/>
  <rect class="cls-1" x="48.5" y="128.6" width="7.8" height="18.3" rx="3.9" ry="3.9" transform="translate(-94.9 143.2) rotate(-71.3)"/>
  <rect class="cls-1" x="69.5" y="96.7" width="7.8" height="18.3" rx="3.9" ry="3.9" transform="translate(-53.3 82.9) rotate(-45)"/>
  <rect class="cls-1" x="109.3" y="81.5" width="7.8" height="18.3" rx="3.9" ry="3.9"/>
  <path class="cls-1" d="M134.6,240.8v-8.9c30.1-6.6,55-34.2,59.1-64.7,5.2-38.9-20.5-77.4-58.6-86.8-61.2-15.1-115.7,37.8-97.1,99.2,7.8,25.8,29,45.1,54.7,52.3-1.2,3.1,0,5.8,0,8.9-33-6.6-59.9-32.9-66.7-65.9-11.2-53.7,28-104.4,82.7-106.7,55-2.4,99.6,41.1,96,96.5-2.3,36-33.7,72.2-70.1,76.1Z"/>
  <path class="cls-1" d="M124.1,54.5c.7,3.5-.5,7.1.5,10.5h-23v-10.5h-10.7c-2.1,0-4.7-3.9-5-6-.3-2.4-.3-10.7.1-13s3.2-4.9,5.9-5.1c13.3-1.2,28.4,1,41.9,0,3,.1,5.6,3,6,6,.3,2.4.3,10.7-.1,13-.3,1.7-3.3,5.1-4.9,5.1h-10.7Z"/>
  <path class="cls-3" d="M170.2,170.1l-9.8,5.6c-16.9,11.5-31,31.6-35.1,51.8-1.1,5.7.2,16.2-7.4,17.3-6.3.9-8.3-7.4-8.5-12.2-1-20.9,21.4-46.3,38.6-56.1s14.3-6.9,22.1-6.4Z"/>
  <circle class="cls-3" cx="112.8" cy="186.7" r="11"/>
  <path class="cls-1" d="M47,71.3c.8-.2,1.4-.1,2,.4.9,1.8,9.9,8.6,9.7,9.7l-16,14.3c-1.4-1.5-9.7-8.7-9.7-10.1l14-14.3Z"/>
  <path class="cls-1" d="M182.4,94.6c-.7-.6-1.5-2.1-2.5-3-4.1-3.8-8.4-7.3-12.8-10.7-.2-.6,8.6-9.4,9.3-9.6,1.4-.4,3.7,1.8,4.9,2.8,4,3.4,8,8,12,11.6.1.7-8.7,9.5-9.6,9.5-.5,0-.9-.3-1.2-.6Z"/>
  <path class="cls-1" d="M117.2,142.8c.1,0,.4-1.1.8-1.5,10.5-10.9,23.9-23.2,35.4-33.2,1.4-1.2,7.9-7,8.9-7.3s2.3.9,2,2-6.4,7.3-7.8,9c-7.9,9.7-15.6,19.6-23.6,29.3-1.7,2.1-7.2,7.3-8.1,9.2s.5,5.7.1,8c-1.1,6.3-8,10.9-14.2,10.3s-4.5-1.9-6.2-1.4-4.9,5.7-6.4,5.7c-.9-.6-5.9-4.7-6-5.1-.6-1.9,6.3-6.3,7.1-8.1.3-.7-.5-6.1,0-8.4.9-4.6,6.5-8.8,11.1-9.3s6.5,1.2,6.9.9ZM117,155.3c0-2.7-2.2-4.8-4.8-4.8s-4.8,2.2-4.8,4.8,2.2,4.8,4.8,4.8,4.8-2.2,4.8-4.8Z"/>
  <g>
    <path class="cls-1" d="M268.3,146.6c-6.9,0-13-1.5-18.4-4.6-5.4-3.1-9.6-7.6-12.7-13.4-3.1-5.8-4.6-12.8-4.6-21.1s1.5-14.9,4.4-20.8c2.9-5.9,7.1-10.4,12.5-13.7,5.4-3.2,11.8-4.9,19.1-4.9s17.9,2.5,23.5,7.4c5.6,4.9,9.2,12,10.8,21.2l-19.1.7c-.8-4.5-2.5-8-5.1-10.6-2.6-2.5-6-3.8-10.1-3.8s-6.8,1-9.3,3.1c-2.6,2-4.5,4.9-5.8,8.6-1.3,3.7-2,7.9-2,12.7s.7,9.2,2.1,12.8c1.4,3.6,3.3,6.4,5.9,8.3,2.5,2,5.6,3,9.1,3s8.1-1.4,10.6-4.1c2.5-2.7,4.1-6.5,4.8-11.3l19.2.7c-1.1,6.3-3.1,11.6-6,16-3,4.4-6.8,7.8-11.6,10.1-4.8,2.3-10.5,3.5-17.2,3.5Z"/>
    <path class="cls-1" d="M305.6,144.9l27-75h21.3l27,75h-18.9l-4.9-14.2h-27.9l-5,14.2h-18.8ZM334.3,116.2h18l-8.9-26.4-9.1,26.4Z"/>
    <path class="cls-1" d="M387.1,144.9v-75h34.3c5.6,0,10.4.9,14.5,2.7,4.1,1.8,7.3,4.4,9.6,7.8,2.3,3.3,3.4,7.3,3.4,11.8s-.7,6.6-2.1,9.3c-1.4,2.7-3.4,4.9-5.9,6.6-2.5,1.7-5.5,2.9-8.9,3.4l-.3-1.1c5.1,0,9,1.1,11.7,3.3,2.6,2.2,4.1,5.5,4.4,9.8l1.8,21.3h-18.8l-1.2-18.3c-.2-2.8-1-4.9-2.5-6.2-1.4-1.3-4-2-7.6-2h-14.1v26.5h-18.4ZM405.5,103.4h13.1c3.7,0,6.6-.8,8.6-2.4,2-1.6,3-3.9,3-6.9s-1-5.3-3-6.9c-2-1.5-4.9-2.3-8.7-2.3h-12.9v18.5Z"/>
    <path class="cls-1" d="M461.7,144.9v-75h24.3l17.5,51.1,17.4-51.1h24.3v75h-18.4v-45.4l-16.4,45.2h-14.2l-16.3-45.2v45.4h-18.4Z"/>
    <path class="cls-1" d="M553.3,144.9l27-75h21.3l27,75h-18.9l-4.9-14.2h-27.9l-5,14.2h-18.8ZM582,116.2h18l-8.9-26.4-9.1,26.4Z"/>
  </g>
  <g>
    <path class="cls-2" d="M232.5,222.8v-56.8h14l15.7,44,15.7-44h14v56.8h-10.4v-39.2l-14.3,39.1h-9.9l-14.3-39.1v39.2h-10.4Z"/>
    <path class="cls-2" d="M325.5,223.7c-4.3,0-8-.9-11.1-2.8-3.1-1.8-5.6-4.4-7.3-7.8-1.7-3.4-2.6-7.3-2.6-11.8s.9-8.4,2.6-11.7c1.7-3.3,4.1-5.9,7.2-7.8,3.1-1.9,6.8-2.8,10.9-2.8s7.6.9,10.7,2.7c3.1,1.8,5.4,4.4,7.1,7.8,1.7,3.4,2.5,7.5,2.5,12.3v2.3h-30.3c.2,3.7,1.2,6.5,3.1,8.4,1.8,1.9,4.3,2.8,7.3,2.8s4.2-.5,5.7-1.6c1.5-1,2.6-2.5,3.2-4.4l10.5.6c-1.2,4.2-3.5,7.4-6.9,9.8-3.4,2.4-7.6,3.6-12.5,3.6ZM315.2,197.4h19.8c-.2-3.5-1.2-6-3-7.7-1.8-1.7-4-2.5-6.7-2.5s-5,.9-6.8,2.6c-1.8,1.8-2.9,4.3-3.3,7.6Z"/>
    <path class="cls-2" d="M372.6,223.7c-3.6,0-6.8-.9-9.4-2.7-2.6-1.8-4.7-4.4-6.1-7.8-1.4-3.4-2.2-7.3-2.2-11.8s.7-8.5,2.2-11.8c1.4-3.4,3.5-5.9,6.2-7.8,2.7-1.8,5.8-2.7,9.4-2.7s5.6.6,7.9,1.8c2.3,1.2,4,3,5.2,5.2v-20.2h10.2v56.8h-9.8l-.2-6.3c-1.2,2.3-2.9,4.1-5.3,5.4-2.3,1.3-5,1.9-8,1.9ZM375.7,215.4c2.1,0,3.9-.5,5.4-1.6,1.5-1.1,2.6-2.7,3.4-4.8.8-2.1,1.2-4.7,1.2-7.6s-.4-5.6-1.2-7.7c-.8-2.1-1.9-3.7-3.4-4.7-1.5-1.1-3.3-1.6-5.4-1.6-3.1,0-5.6,1.2-7.4,3.7-1.8,2.5-2.8,5.9-2.8,10.3s.9,7.7,2.8,10.2c1.8,2.5,4.3,3.8,7.4,3.8Z"/>
    <path class="cls-2" d="M456.1,224c-4.7,0-8.7-.8-12.2-2.5s-6.1-4-8-6.9c-1.9-3-3.1-6.4-3.4-10.4l10.6-.6c.3,2.5,1,4.5,2.1,6.2,1.1,1.7,2.6,3,4.4,3.9s4.1,1.3,6.7,1.3,4.1-.3,5.7-.8c1.6-.6,2.8-1.4,3.6-2.5.8-1.1,1.2-2.4,1.2-4s-.3-2.7-1-3.9c-.7-1.1-2-2.2-4-3.1-2-.9-4.9-1.9-8.8-2.8-4.7-1.1-8.5-2.3-11.3-3.6-2.8-1.4-4.9-3.1-6.2-5.1-1.3-2.1-1.9-4.6-1.9-7.7s.8-6.2,2.5-8.8c1.7-2.5,4-4.5,7-5.9,3-1.4,6.7-2.1,11-2.1s8.4.8,11.5,2.4c3.1,1.6,5.6,3.9,7.4,6.7,1.8,2.8,2.9,6.1,3.4,9.8l-10.5.5c-.3-2.1-.9-3.9-1.9-5.4-1-1.5-2.3-2.8-4-3.6-1.7-.9-3.7-1.3-6.1-1.3s-5.3.7-7.1,2c-1.7,1.4-2.6,3.2-2.6,5.4s.4,2.8,1.1,3.8c.7,1,2,1.9,3.9,2.6,1.9.7,4.5,1.5,7.8,2.3,5.1,1.1,9.1,2.4,12.1,4.1,3,1.7,5.1,3.6,6.4,5.8,1.3,2.2,1.9,4.7,1.9,7.5s-.9,6.5-2.6,9c-1.8,2.5-4.2,4.5-7.4,5.8-3.2,1.4-7,2-11.3,2Z"/>
    <path class="cls-2" d="M491.2,234.8v-54.7h9.8l.2,9.1-1-.5c1.1-3.1,2.8-5.5,5.2-7.2,2.4-1.6,5.3-2.4,8.5-2.4s7.4,1,10.1,3c2.7,2,4.7,4.7,6,8.1,1.3,3.4,2,7.1,2,11.2s-.7,7.8-2,11.2c-1.4,3.4-3.4,6.1-6.1,8.1-2.7,2-6.1,3-10.1,3s-4.1-.4-6-1.1c-1.8-.7-3.4-1.8-4.7-3.2-1.3-1.4-2.2-3-2.8-4.9l1-.8v21h-10.2ZM511.5,215.4c3.1,0,5.5-1.2,7.3-3.7,1.8-2.5,2.7-5.9,2.7-10.3s-.9-7.8-2.7-10.3c-1.8-2.5-4.2-3.7-7.3-3.7s-3.9.5-5.4,1.6-2.7,2.6-3.5,4.7c-.8,2.1-1.2,4.7-1.2,7.8s.4,5.7,1.2,7.8,2,3.6,3.5,4.7c1.5,1,3.3,1.6,5.4,1.6Z"/>
    <path class="cls-2" d="M557,223.7c-4.5,0-8.1-1-10.8-3.1-2.7-2.1-4.1-4.9-4.1-8.6s1.1-6.6,3.4-8.6,5.8-3.6,10.5-4.5l14.2-2.8c0-3-.7-5.3-2.1-6.8-1.4-1.5-3.4-2.3-6.2-2.3s-4.4.6-5.8,1.7c-1.4,1.1-2.4,2.8-2.9,4.9l-10.4-.5c.9-4.5,2.9-8,6.2-10.4,3.3-2.4,7.6-3.6,12.9-3.6s10.7,1.5,13.8,4.6c3.1,3.1,4.7,7.5,4.7,13.2v15.5c0,1.1.2,1.9.6,2.3.4.4,1,.6,1.8.6h1.4v7.4c-.3.1-.8.2-1.6.2-.7,0-1.5,0-2.2,0-1.8,0-3.3-.3-4.7-.8-1.4-.6-2.5-1.5-3.2-3-.7-1.4-1.1-3.3-1.1-5.8l.9.6c-.4,1.9-1.3,3.5-2.8,5s-3.2,2.6-5.3,3.4c-2.1.8-4.5,1.2-7.2,1.2ZM559.1,216.3c2.3,0,4.3-.5,5.9-1.4,1.7-.9,2.9-2.2,3.8-3.8.9-1.6,1.4-3.5,1.4-5.7v-2.4l-11,2.2c-2.3.5-3.9,1.2-4.9,2.1-1,.9-1.5,2.1-1.5,3.6s.5,2.9,1.6,3.8c1.1.9,2.7,1.4,4.7,1.4Z"/>
    <path class="cls-2" d="M611.7,223.7c-4.2,0-7.7-.6-10.6-1.8-2.9-1.2-5.1-2.9-6.6-5.1-1.5-2.2-2.4-4.7-2.6-7.4l10.5-.5c.4,2.2,1.3,4,2.8,5.2,1.5,1.2,3.7,1.8,6.6,1.8s4.3-.4,5.6-1.2c1.4-.8,2-2,2-3.6s-.2-1.8-.7-2.4-1.4-1.2-2.7-1.7c-1.3-.5-3.3-1-5.9-1.4-4.4-.7-7.8-1.7-10.3-2.8-2.5-1.1-4.3-2.5-5.3-4.1-1-1.7-1.6-3.7-1.6-6.2,0-4,1.5-7.2,4.6-9.7,3.1-2.5,7.6-3.7,13.5-3.7s7.1.6,9.7,1.9c2.6,1.3,4.7,3,6.1,5.1,1.5,2.2,2.4,4.6,2.8,7.4l-10.3.5c-.3-1.4-.7-2.7-1.4-3.8-.7-1.1-1.6-1.9-2.8-2.4-1.2-.6-2.6-.8-4.2-.8-2.4,0-4.2.5-5.4,1.4-1.2,1-1.8,2.2-1.8,3.8s.3,2.1.8,2.8c.6.7,1.5,1.3,2.8,1.8,1.3.5,3,.9,5.1,1.2,4.5.7,8,1.6,10.6,2.7,2.6,1.1,4.4,2.5,5.5,4.2,1.1,1.7,1.6,3.7,1.6,6s-.8,5-2.3,7-3.7,3.4-6.4,4.4c-2.7,1-6,1.5-9.6,1.5Z"/>
  </g>
</svg>